<svg xmlns="http://www.w3.org/2000/svg" xmlns:xlink="http://www.w3.org/1999/xlink" contentStyleType="text/css" data-diagram-type="CLASS" height="718px" preserveAspectRatio="none" style="width:366px;height:718px;background:#FFFFFF;" version="1.1" viewBox="0 0 366 718" width="366px" zoomAndPan="magnify"><defs/><g><!--class U--><g class="entity" data-entity="U" data-source-line="2" data-uid="ent0002" id="entity_U"><rect fill="#F1F1F1" height="171.2656" rx="2.5" ry="2.5" style="stroke:#181818;stroke-width:0.5;" width="172.3096" x="7" y="33.5"/><ellipse cx="74.1255" cy="49.5" fill="#ADD1B2" rx="11" ry="11" style="stroke:#181818;stroke-width:1;"/><path d="M72.9849,50.2969 L72.9849,52.7969 L77.313,52.7969 L77.313,51.875 Q77.313,51.2656 77.5474,51 Q77.7974,50.7344 78.1724,50.7344 Q78.5474,50.7344 78.7817,51 Q79.0161,51.2656 79.0161,51.875 L79.0161,54.5 L71.0161,54.5 Q70.3911,54.5 70.1255,54.2656 Q69.8755,54.0313 69.8755,53.6406 Q69.8755,53.2656 70.1411,53.0313 Q70.4067,52.7969 71.0161,52.7969 L71.2817,52.7969 L71.2817,46.1406 L71.0161,46.1406 Q70.3911,46.1406 70.1255,45.9063 Q69.8755,45.6719 69.8755,45.2813 Q69.8755,44.9063 70.1255,44.6719 Q70.3911,44.4375 71.0161,44.4375 L78.6411,44.4375 L78.6411,47.0313 Q78.6411,47.6406 78.4067,47.9063 Q78.188,48.1563 77.7974,48.1563 Q77.4224,48.1563 77.188,47.9063 Q76.9536,47.6406 76.9536,47.0313 L76.9536,46.1406 L72.9849,46.1406 L72.9849,48.5938 L74.4692,48.5938 Q74.4692,47.9375 74.5942,47.75 Q74.8599,47.3438 75.3286,47.3438 Q75.7036,47.3438 75.938,47.6094 Q76.1724,47.8594 76.1724,48.4688 L76.1724,50.4375 Q76.1724,50.9844 76.0474,51.1719 Q75.7817,51.5625 75.3286,51.5625 Q74.8599,51.5625 74.5942,51.1563 Q74.4692,50.9688 74.4692,50.2969 L72.9849,50.2969 Z " fill="#000000"/><text fill="#000000" font-family="sans-serif" font-size="14" lengthAdjust="spacing" textLength="29.5586" x="94.6255" y="55.2285">User</text><line style="stroke:#181818;stroke-width:0.5;" x1="8" x2="178.3096" y1="65.5" y2="65.5"/><ellipse cx="18" cy="79.8047" fill="#000000" rx="3" ry="3" style="stroke:#000000;stroke-width:1;"/><text fill="#000000" font-family="sans-serif" font-size="14" lengthAdjust="spacing" textLength="49.0342" x="27" y="84.0332">id : uuid</text><line style="stroke:#181818;stroke-width:1;" x1="8" x2="178.3096" y1="91.1094" y2="91.1094"/><text fill="#000000" font-family="sans-serif" font-size="14" lengthAdjust="spacing" textLength="120.6064" x="13" y="109.6426">username : varchar</text><text fill="#000000" font-family="sans-serif" font-size="14" lengthAdjust="spacing" textLength="70.0342" x="13" y="127.252">role : enum</text><text fill="#000000" font-family="sans-serif" font-size="14" lengthAdjust="spacing" textLength="97.2822" x="13" y="144.8613">phone : varchar</text><text fill="#000000" font-family="sans-serif" font-size="14" lengthAdjust="spacing" textLength="160.3096" x="13" y="162.4707">contact_account : varchar</text><text fill="#000000" font-family="sans-serif" font-size="14" lengthAdjust="spacing" textLength="112.8203" x="13" y="180.0801">birth_md : varchar</text><text fill="#000000" font-family="sans-serif" font-size="14" lengthAdjust="spacing" textLength="120.6406" x="13" y="197.6895">points_balance : int</text></g><!--class Q--><g class="entity" data-entity="Q" data-source-line="12" data-uid="ent0003" id="entity_Q"><rect fill="#F1F1F1" height="224.0938" rx="2.5" ry="2.5" style="stroke:#181818;stroke-width:0.5;" width="128.71" x="216.5" y="7"/><ellipse cx="249.8041" cy="23" fill="#ADD1B2" rx="11" ry="11" style="stroke:#181818;stroke-width:1;"/><path d="M248.6635,23.7969 L248.6635,26.2969 L252.9916,26.2969 L252.9916,25.375 Q252.9916,24.7656 253.226,24.5 Q253.476,24.2344 253.851,24.2344 Q254.226,24.2344 254.4604,24.5 Q254.6947,24.7656 254.6947,25.375 L254.6947,28 L246.6947,28 Q246.0697,28 245.8041,27.7656 Q245.5541,27.5313 245.5541,27.1406 Q245.5541,26.7656 245.8197,26.5313 Q246.0854,26.2969 246.6947,26.2969 L246.9604,26.2969 L246.9604,19.6406 L246.6947,19.6406 Q246.0697,19.6406 245.8041,19.4063 Q245.5541,19.1719 245.5541,18.7813 Q245.5541,18.4063 245.8041,18.1719 Q246.0697,17.9375 246.6947,17.9375 L254.3197,17.9375 L254.3197,20.5313 Q254.3197,21.1406 254.0854,21.4063 Q253.8666,21.6563 253.476,21.6563 Q253.101,21.6563 252.8666,21.4063 Q252.6322,21.1406 252.6322,20.5313 L252.6322,19.6406 L248.6635,19.6406 L248.6635,22.0938 L250.1479,22.0938 Q250.1479,21.4375 250.2729,21.25 Q250.5385,20.8438 251.0072,20.8438 Q251.3822,20.8438 251.6166,21.1094 Q251.851,21.3594 251.851,21.9688 L251.851,23.9375 Q251.851,24.4844 251.726,24.6719 Q251.4604,25.0625 251.0072,25.0625 Q250.5385,25.0625 250.2729,24.6563 Q250.1479,24.4688 250.1479,23.7969 L248.6635,23.7969 Z " fill="#000000"/><text fill="#000000" font-family="sans-serif" font-size="14" lengthAdjust="spacing" textLength="56.0342" x="267.8717" y="28.7285">Question</text><line style="stroke:#181818;stroke-width:0.5;" x1="217.5" x2="344.21" y1="39" y2="39"/><ellipse cx="227.5" cy="53.3047" fill="#000000" rx="3" ry="3" style="stroke:#000000;stroke-width:1;"/><text fill="#000000" font-family="sans-serif" font-size="14" lengthAdjust="spacing" textLength="49.0342" x="236.5" y="57.5332">id : uuid</text><text fill="#000000" font-family="sans-serif" font-size="14" lengthAdjust="spacing" textLength="100.3721" x="236.5" y="75.1426">source : varchar</text><text fill="#000000" font-family="sans-serif" font-size="14" lengthAdjust="spacing" textLength="97.2686" x="236.5" y="92.752">region : varchar</text><text fill="#000000" font-family="sans-serif" font-size="14" lengthAdjust="spacing" textLength="102.71" x="236.5" y="110.3613">subject : varchar</text><text fill="#000000" font-family="sans-serif" font-size="14" lengthAdjust="spacing" textLength="84.8135" x="236.5" y="127.9707">type : varchar</text><text fill="#000000" font-family="sans-serif" font-size="14" lengthAdjust="spacing" textLength="77.0273" x="236.5" y="145.5801">difficulty : int</text><text fill="#000000" font-family="sans-serif" font-size="14" lengthAdjust="spacing" textLength="80.1582" x="236.5" y="163.1895">content : text</text><text fill="#000000" font-family="sans-serif" font-size="14" lengthAdjust="spacing" textLength="79.3652" x="236.5" y="180.7988">answer : text</text><text fill="#000000" font-family="sans-serif" font-size="14" lengthAdjust="spacing" textLength="84.8135" x="236.5" y="198.4082">analysis : text</text><text fill="#000000" font-family="sans-serif" font-size="14" lengthAdjust="spacing" textLength="84.041" x="236.5" y="216.0176">status : enum</text><line style="stroke:#181818;stroke-width:0.5;" x1="217.5" x2="344.21" y1="223.0938" y2="223.0938"/></g><!--class A--><g class="entity" data-entity="A" data-source-line="24" data-uid="ent0004" id="entity_A"><rect fill="#F1F1F1" height="171.2656" rx="2.5" ry="2.5" style="stroke:#181818;stroke-width:0.5;" width="152.8271" x="204.5" y="309"/><ellipse cx="239.5606" cy="325" fill="#ADD1B2" rx="11" ry="11" style="stroke:#181818;stroke-width:1;"/><path d="M238.42,325.7969 L238.42,328.2969 L242.7481,328.2969 L242.7481,327.375 Q242.7481,326.7656 242.9825,326.5 Q243.2325,326.2344 243.6075,326.2344 Q243.9825,326.2344 244.2168,326.5 Q244.4512,326.7656 244.4512,327.375 L244.4512,330 L236.4512,330 Q235.8262,330 235.5606,329.7656 Q235.3106,329.5313 235.3106,329.1406 Q235.3106,328.7656 235.5762,328.5313 Q235.8418,328.2969 236.4512,328.2969 L236.7168,328.2969 L236.7168,321.6406 L236.4512,321.6406 Q235.8262,321.6406 235.5606,321.4063 Q235.3106,321.1719 235.3106,320.7813 Q235.3106,320.4063 235.5606,320.1719 Q235.8262,319.9375 236.4512,319.9375 L244.0762,319.9375 L244.0762,322.5313 Q244.0762,323.1406 243.8418,323.4063 Q243.6231,323.6563 243.2325,323.6563 Q242.8575,323.6563 242.6231,323.4063 Q242.3887,323.1406 242.3887,322.5313 L242.3887,321.6406 L238.42,321.6406 L238.42,324.0938 L239.9043,324.0938 Q239.9043,323.4375 240.0293,323.25 Q240.295,322.8438 240.7637,322.8438 Q241.1387,322.8438 241.3731,323.1094 Q241.6075,323.3594 241.6075,323.9688 L241.6075,325.9375 Q241.6075,326.4844 241.4825,326.6719 Q241.2168,327.0625 240.7637,327.0625 Q240.295,327.0625 240.0293,326.6563 Q239.9043,326.4688 239.9043,325.7969 L238.42,325.7969 Z " fill="#000000"/><text fill="#000000" font-family="sans-serif" font-size="14" lengthAdjust="spacing" textLength="76.248" x="258.0185" y="330.7285">Assessment</text><line style="stroke:#181818;stroke-width:0.5;" x1="205.5" x2="356.3271" y1="341" y2="341"/><ellipse cx="215.5" cy="355.3047" fill="#000000" rx="3" ry="3" style="stroke:#000000;stroke-width:1;"/><text fill="#000000" font-family="sans-serif" font-size="14" lengthAdjust="spacing" textLength="49.0342" x="224.5" y="359.5332">id : uuid</text><text fill="#000000" font-family="sans-serif" font-size="14" lengthAdjust="spacing" textLength="84.0547" x="224.5" y="377.1426">user_id : uuid</text><text fill="#000000" font-family="sans-serif" font-size="14" lengthAdjust="spacing" textLength="84.8135" x="224.5" y="394.752">type : varchar</text><text fill="#000000" font-family="sans-serif" font-size="14" lengthAdjust="spacing" textLength="126.8271" x="224.5" y="412.3613">start_time : datetime</text><text fill="#000000" font-family="sans-serif" font-size="14" lengthAdjust="spacing" textLength="122.958" x="224.5" y="429.9707">end_time : datetime</text><text fill="#000000" font-family="sans-serif" font-size="14" lengthAdjust="spacing" textLength="120.6064" x="224.5" y="447.5801">media_ref : varchar</text><text fill="#000000" font-family="sans-serif" font-size="14" lengthAdjust="spacing" textLength="123.71" x="224.5" y="465.1895">system_score : json</text><line style="stroke:#181818;stroke-width:0.5;" x1="205.5" x2="356.3271" y1="472.2656" y2="472.2656"/></g><!--class E--><g class="entity" data-entity="E" data-source-line="33" data-uid="ent0005" id="entity_E"><rect fill="#F1F1F1" height="153.6563" rx="2.5" ry="2.5" style="stroke:#181818;stroke-width:0.5;" width="157.5166" x="202" y="558"/><ellipse cx="238.8171" cy="574" fill="#ADD1B2" rx="11" ry="11" style="stroke:#181818;stroke-width:1;"/><path d="M237.6765,574.7969 L237.6765,577.2969 L242.0046,577.2969 L242.0046,576.375 Q242.0046,575.7656 242.239,575.5 Q242.489,575.2344 242.864,575.2344 Q243.239,575.2344 243.4733,575.5 Q243.7077,575.7656 243.7077,576.375 L243.7077,579 L235.7077,579 Q235.0827,579 234.8171,578.7656 Q234.5671,578.5313 234.5671,578.1406 Q234.5671,577.7656 234.8327,577.5313 Q235.0983,577.2969 235.7077,577.2969 L235.9733,577.2969 L235.9733,570.6406 L235.7077,570.6406 Q235.0827,570.6406 234.8171,570.4063 Q234.5671,570.1719 234.5671,569.7813 Q234.5671,569.4063 234.8171,569.1719 Q235.0827,568.9375 235.7077,568.9375 L243.3327,568.9375 L243.3327,571.5313 Q243.3327,572.1406 243.0983,572.4063 Q242.8796,572.6563 242.489,572.6563 Q242.114,572.6563 241.8796,572.4063 Q241.6452,572.1406 241.6452,571.5313 L241.6452,570.6406 L237.6765,570.6406 L237.6765,573.0938 L239.1608,573.0938 Q239.1608,572.4375 239.2858,572.25 Q239.5515,571.8438 240.0202,571.8438 Q240.3952,571.8438 240.6296,572.1094 Q240.864,572.3594 240.864,572.9688 L240.864,574.9375 Q240.864,575.4844 240.739,575.6719 Q240.4733,576.0625 240.0202,576.0625 Q239.5515,576.0625 239.2858,575.6563 Q239.1608,575.4688 239.1608,574.7969 L237.6765,574.7969 Z " fill="#000000"/><text fill="#000000" font-family="sans-serif" font-size="14" lengthAdjust="spacing" textLength="77.0342" x="257.6653" y="579.7285">ExpertScore</text><line style="stroke:#181818;stroke-width:0.5;" x1="203" x2="358.5166" y1="590" y2="590"/><ellipse cx="213" cy="604.3047" fill="#000000" rx="3" ry="3" style="stroke:#000000;stroke-width:1;"/><text fill="#000000" font-family="sans-serif" font-size="14" lengthAdjust="spacing" textLength="49.0342" x="222" y="608.5332">id : uuid</text><text fill="#000000" font-family="sans-serif" font-size="14" lengthAdjust="spacing" textLength="131.5166" x="222" y="626.1426">assessment_id : uuid</text><text fill="#000000" font-family="sans-serif" font-size="14" lengthAdjust="spacing" textLength="95.7305" x="222" y="643.752">expert_id : uuid</text><text fill="#000000" font-family="sans-serif" font-size="14" lengthAdjust="spacing" textLength="78.5859" x="222" y="661.3613">scores : json</text><text fill="#000000" font-family="sans-serif" font-size="14" lengthAdjust="spacing" textLength="77.793" x="222" y="678.9707">remark : text</text><text fill="#000000" font-family="sans-serif" font-size="14" lengthAdjust="spacing" textLength="129.9375" x="222" y="696.5801">timestamp : datetime</text><line style="stroke:#181818;stroke-width:0.5;" x1="203" x2="358.5166" y1="703.6563" y2="703.6563"/></g><!--class P--><g class="entity" data-entity="P" data-source-line="41" data-uid="ent0006" id="entity_P"><rect fill="#F1F1F1" height="171.2656" rx="2.5" ry="2.5" style="stroke:#181818;stroke-width:0.5;" width="157.5234" x="11" y="309"/><ellipse cx="61.7808" cy="325" fill="#ADD1B2" rx="11" ry="11" style="stroke:#181818;stroke-width:1;"/><path d="M60.6401,325.7969 L60.6401,328.2969 L64.9683,328.2969 L64.9683,327.375 Q64.9683,326.7656 65.2026,326.5 Q65.4526,326.2344 65.8276,326.2344 Q66.2026,326.2344 66.437,326.5 Q66.6714,326.7656 66.6714,327.375 L66.6714,330 L58.6714,330 Q58.0464,330 57.7808,329.7656 Q57.5308,329.5313 57.5308,329.1406 Q57.5308,328.7656 57.7964,328.5313 Q58.062,328.2969 58.6714,328.2969 L58.937,328.2969 L58.937,321.6406 L58.6714,321.6406 Q58.0464,321.6406 57.7808,321.4063 Q57.5308,321.1719 57.5308,320.7813 Q57.5308,320.4063 57.7808,320.1719 Q58.0464,319.9375 58.6714,319.9375 L66.2964,319.9375 L66.2964,322.5313 Q66.2964,323.1406 66.062,323.4063 Q65.8433,323.6563 65.4526,323.6563 Q65.0776,323.6563 64.8433,323.4063 Q64.6089,323.1406 64.6089,322.5313 L64.6089,321.6406 L60.6401,321.6406 L60.6401,324.0938 L62.1245,324.0938 Q62.1245,323.4375 62.2495,323.25 Q62.5151,322.8438 62.9839,322.8438 Q63.3589,322.8438 63.5933,323.1094 Q63.8276,323.3594 63.8276,323.9688 L63.8276,325.9375 Q63.8276,326.4844 63.7026,326.6719 Q63.437,327.0625 62.9839,327.0625 Q62.5151,327.0625 62.2495,326.6563 Q62.1245,326.4688 62.1245,325.7969 L60.6401,325.7969 Z " fill="#000000"/><text fill="#000000" font-family="sans-serif" font-size="14" lengthAdjust="spacing" textLength="47.4619" x="82.2808" y="330.7285">PointTx</text><line style="stroke:#181818;stroke-width:0.5;" x1="12" x2="167.5234" y1="341" y2="341"/><ellipse cx="22" cy="355.3047" fill="#000000" rx="3" ry="3" style="stroke:#000000;stroke-width:1;"/><text fill="#000000" font-family="sans-serif" font-size="14" lengthAdjust="spacing" textLength="49.0342" x="31" y="359.5332">id : uuid</text><text fill="#000000" font-family="sans-serif" font-size="14" lengthAdjust="spacing" textLength="101.1582" x="31" y="377.1426">from_user : uuid</text><text fill="#000000" font-family="sans-serif" font-size="14" lengthAdjust="spacing" textLength="84.834" x="31" y="394.752">to_user : uuid</text><text fill="#000000" font-family="sans-serif" font-size="14" lengthAdjust="spacing" textLength="73.1514" x="31" y="412.3613">amount : int</text><text fill="#000000" font-family="sans-serif" font-size="14" lengthAdjust="spacing" textLength="84.8135" x="31" y="429.9707">type : varchar</text><text fill="#000000" font-family="sans-serif" font-size="14" lengthAdjust="spacing" textLength="95.7031" x="31" y="447.5801">status : varchar</text><text fill="#000000" font-family="sans-serif" font-size="14" lengthAdjust="spacing" textLength="131.5234" x="31" y="465.1895">created_at : datetime</text><line style="stroke:#181818;stroke-width:0.5;" x1="12" x2="167.5234" y1="472.2656" y2="472.2656"/></g><!--link U to A--><g class="link" data-entity-1="U" data-entity-2="A" data-source-line="50" data-uid="lnk7" id="link_U_A"><path codeLine="50" d="M155.7305,211.2536 C178.4805,244.3636 189.8065,260.8245 212.5565,293.9345" fill="none" id="U-A" style="stroke:#181818;stroke-width:1;"/><line style="stroke:#181818;stroke-width:1;" x1="150.1685" x2="156.762" y1="210.222" y2="205.6915"/><line style="stroke:#181818;stroke-width:1;" x1="151.8674" x2="158.4609" y1="212.6946" y2="208.1641"/><line style="stroke:#181818;stroke-width:1;" x1="155.7305" x2="151.2" y1="211.2536" y2="204.66"/><line style="stroke:#181818;stroke-width:1;" x1="218.2195" x2="227.6952" y1="302.1764" y2="305.3722"/><line style="stroke:#181818;stroke-width:1;" x1="218.2195" x2="217.8048" y1="302.1764" y2="312.1678"/><line style="stroke:#181818;stroke-width:1;" x1="218.2195" x2="222.75" y1="302.1764" y2="308.77"/><ellipse cx="214.8217" cy="297.2313" fill="none" rx="4" ry="4" style="stroke:#181818;stroke-width:1;"/><text fill="#000000" font-family="sans-serif" font-size="13" lengthAdjust="spacing" textLength="31.0718" x="200" y="275.4951">takes</text></g><!--link U to P--><g class="link" data-entity-1="U" data-entity-2="P" data-source-line="51" data-uid="lnk8" id="link_U_P"><path codeLine="51" d="M91.983,212.6595 C91.623,245.7695 91.4857,257.6611 91.1257,290.7711" fill="none" id="U-P" style="stroke:#181818;stroke-width:1;"/><line style="stroke:#181818;stroke-width:1;" x1="88.0267" x2="96.0263" y1="208.6163" y2="208.7033"/><line style="stroke:#181818;stroke-width:1;" x1="87.9941" x2="95.9937" y1="211.6161" y2="211.7031"/><line style="stroke:#181818;stroke-width:1;" x1="91.983" x2="92.07" y1="212.6595" y2="204.66"/><line style="stroke:#181818;stroke-width:1;" x1="91.017" x2="96.9296" y1="300.7705" y2="308.8352"/><line style="stroke:#181818;stroke-width:1;" x1="91.017" x2="84.9304" y1="300.7705" y2="308.7048"/><line style="stroke:#181818;stroke-width:1;" x1="91.017" x2="90.93" y1="300.7705" y2="308.77"/><ellipse cx="91.0822" cy="294.7708" fill="none" rx="4" ry="4" style="stroke:#181818;stroke-width:1;"/><text fill="#000000" font-family="sans-serif" font-size="13" lengthAdjust="spacing" textLength="66.479" x="93" y="275.4951">participates</text></g><!--link Q to A--><g class="link" data-entity-1="Q" data-entity-2="A" data-source-line="52" data-uid="lnk9" id="link_Q_A"><path codeLine="52" d="M281,239.24 C281,265.12 281,266.27 281,290.79" fill="none" id="Q-A" style="stroke:#181818;stroke-width:1;"/><line style="stroke:#181818;stroke-width:1;" x1="277" x2="285" y1="235.24" y2="235.24"/><line style="stroke:#181818;stroke-width:1;" x1="277" x2="285" y1="238.24" y2="238.24"/><line style="stroke:#181818;stroke-width:1;" x1="281" x2="281" y1="239.24" y2="231.24"/><line style="stroke:#181818;stroke-width:1;" x1="281" x2="287" y1="300.79" y2="308.79"/><line style="stroke:#181818;stroke-width:1;" x1="281" x2="275" y1="300.79" y2="308.79"/><line style="stroke:#181818;stroke-width:1;" x1="281" x2="281" y1="300.79" y2="308.79"/><ellipse cx="281" cy="294.79" fill="none" rx="4" ry="4" style="stroke:#181818;stroke-width:1;"/><text fill="#000000" font-family="sans-serif" font-size="13" lengthAdjust="spacing" textLength="45.5381" x="282" y="275.4951">used_in</text></g><!--link A to E--><g class="link" data-entity-1="A" data-entity-2="E" data-source-line="53" data-uid="lnk10" id="link_A_E"><path codeLine="53" d="M281,488.26 C281,513.56 281,515.14 281,539.85" fill="none" id="A-E" style="stroke:#181818;stroke-width:1;"/><line style="stroke:#181818;stroke-width:1;" x1="277" x2="285" y1="484.26" y2="484.26"/><line style="stroke:#181818;stroke-width:1;" x1="277" x2="285" y1="487.26" y2="487.26"/><line style="stroke:#181818;stroke-width:1;" x1="281" x2="281" y1="488.26" y2="480.26"/><line style="stroke:#181818;stroke-width:1;" x1="281" x2="287" y1="549.85" y2="557.85"/><line style="stroke:#181818;stroke-width:1;" x1="281" x2="275" y1="549.85" y2="557.85"/><line style="stroke:#181818;stroke-width:1;" x1="281" x2="281" y1="549.85" y2="557.85"/><ellipse cx="281" cy="543.85" fill="none" rx="4" ry="4" style="stroke:#181818;stroke-width:1;"/><text fill="#000000" font-family="sans-serif" font-size="13" lengthAdjust="spacing" textLength="20.96" x="282" y="524.4951">has</text></g><!--SRC=[RPAnRXin343t-meXIu42_e5k7horWDt6iq1BTAt4aWuYbTf82YHRClGBEdNfs2y8-ZTji-KNIftZt2cNvN1y4gL7Kc_Klr_N3pzlrEoZ-lFzzyEtkxy_RX_lR-TR2BpyyFxn_gx1m8xtwcH9c4uKa5ggoqQfjywgTofdPoMOJEIJPKC0Zu8l89aD984fRWl0aBr4xIQ6Ujt4m61OWp4n1wxMLYxnHdjRmJQwmAHN88gcd2LXy_NPSf6HsCNGcIx6fXHpCYyKyRCaL8ZowWnDRSFxjiwpRhrs9c_bseF5eHhigc3S5G21lc0Qnh3TawEU40DdEhQeBsHAX4HUmgwKwRYKqcyz12D3EJknPjVDn09Z-HMEmRv2FLe7Ek6wFcDFZ5wJYQdiFwCO1fQpNOk9FvN5JdCsreJdGYfPx38hrDr1nqlAO3oayxvLnLDAyktGktUPbvTnkkiyvcEFTOfUbvuD6XPV0F1FZ_0mpjSQUXZMu04d51MhWMkhfRgwcapYfKnE2e1pf1xD1RKo6cTSAndKB8QRHSbg5vhf4Su4Re3-0m00]--></g></svg>